<svg xmlns="http://www.w3.org/2000/svg" width="1088" height="878" viewBox="0 0 1088 878" font-family="-apple-system,Segoe UI,Roboto,Helvetica,Arial,sans-serif" role="img">
<title>GJC 멀티벤더 — 10 프로필 × 5 역할 매트릭스</title>
<rect width="1088" height="878" rx="18" fill="#ffffff"/><rect width="1088" height="878" rx="18" fill="none" stroke="#ECECF1"/>
<text x="24" y="46" font-size="22" font-weight="700" fill="#1A1A28">GJC 멀티벤더 — 10 프로필 × 5 역할</text>
<text x="24" y="72" font-size="13" fill="#6B6B7B">행=프로필 · 열=역할 · 색=벤더 · 모든 셀 라이브 실호출 검증 ✓ (2026-06-18)</text>
<rect x="24" y="88" width="14" height="14" rx="3" fill="#FBE9E4" stroke="#D9583E"/>
<text x="44" y="100" font-size="12" fill="#444">Anthropic</text>
<rect x="135" y="88" width="14" height="14" rx="3" fill="#E3F4EE" stroke="#10A37F"/>
<text x="155" y="100" font-size="12" fill="#444">OpenAI</text>
<rect x="225" y="88" width="14" height="14" rx="3" fill="#E8F0FE" stroke="#4285F4"/>
<text x="245" y="100" font-size="12" fill="#444">Google</text>
<rect x="315" y="88" width="14" height="14" rx="3" fill="#EEF1F5" stroke="#475569"/>
<text x="335" y="100" font-size="12" fill="#444">xAI</text>
<rect x="384" y="88" width="14" height="14" rx="3" fill="#FEF1DD" stroke="#E08A1E"/>
<text x="404" y="100" font-size="12" fill="#444">opencode-go</text>
<line x1="24" y1="114" x2="1064" y2="114" stroke="#F0F0F4"/>
<text x="272" y="138" font-size="13" font-weight="600" fill="#33334a" text-anchor="middle">🎛 default</text>
<text x="448" y="138" font-size="13" font-weight="600" fill="#33334a" text-anchor="middle">🔨 executor</text>
<text x="624" y="138" font-size="13" font-weight="600" fill="#33334a" text-anchor="middle">🧠 planner</text>
<text x="800" y="138" font-size="13" font-weight="600" fill="#33334a" text-anchor="middle">🔭 architect</text>
<text x="976" y="138" font-size="13" font-weight="600" fill="#33334a" text-anchor="middle">⚖ critic</text>
<rect x="24" y="156" width="1040" height="58" rx="10" fill="#FFFFFF"/>
<text x="34" y="183" font-size="13.5" font-weight="700" fill="#1A1A28">⭐ daily</text>
<text x="34" y="201" font-size="10.5" fill="#D9583E" font-weight="600">평소 기본</text>
<rect x="188" y="161" width="168" height="48" rx="8" fill="#FBE9E4"/><rect x="188" y="161" width="4.5" height="48" rx="2" fill="#D9583E"/>
<text x="202" y="183" font-size="12.5" font-weight="700" fill="#8A2B1A">Opus 4.8</text>
<text x="202" y="200" font-size="10.5" fill="#8A2B1A" opacity="0.8">:medium</text>
<rect x="364" y="161" width="168" height="48" rx="8" fill="#E3F4EE"/><rect x="364" y="161" width="4.5" height="48" rx="2" fill="#10A37F"/>
<text x="378" y="183" font-size="12.5" font-weight="700" fill="#0A6B53">GPT-5.4</text>
<text x="378" y="200" font-size="10.5" fill="#0A6B53" opacity="0.8">:high</text>
<rect x="540" y="161" width="168" height="48" rx="8" fill="#E8F0FE"/><rect x="540" y="161" width="4.5" height="48" rx="2" fill="#4285F4"/>
<text x="554" y="183" font-size="11" font-weight="700" fill="#1A56C4">Gemini 3.1 Pro</text>
<text x="554" y="200" font-size="10.5" fill="#1A56C4" opacity="0.8">low:high</text>
<rect x="716" y="161" width="168" height="48" rx="8" fill="#E8F0FE"/><rect x="716" y="161" width="4.5" height="48" rx="2" fill="#4285F4"/>
<text x="730" y="183" font-size="11" font-weight="700" fill="#1A56C4">Gemini 3.1 Pro</text>
<text x="730" y="200" font-size="10.5" fill="#1A56C4" opacity="0.8">low:high</text>
<rect x="892" y="161" width="168" height="48" rx="8" fill="#EEF1F5"/><rect x="892" y="161" width="4.5" height="48" rx="2" fill="#475569"/>
<text x="906" y="183" font-size="12.5" font-weight="700" fill="#2D3A4D">Grok 4.3</text>
<text x="906" y="200" font-size="10.5" fill="#2D3A4D" opacity="0.8">:medium</text>
<rect x="24" y="222" width="1040" height="58" rx="10" fill="#FAFAFC"/>
<text x="34" y="249" font-size="13.5" font-weight="700" fill="#1A1A28">🏆 ultimate</text>
<rect x="188" y="227" width="168" height="48" rx="8" fill="#FBE9E4"/><rect x="188" y="227" width="4.5" height="48" rx="2" fill="#D9583E"/>
<text x="202" y="249" font-size="12.5" font-weight="700" fill="#8A2B1A">Opus 4.8</text>
<text x="202" y="266" font-size="10.5" fill="#8A2B1A" opacity="0.8">:high</text>
<rect x="364" y="227" width="168" height="48" rx="8" fill="#FBE9E4"/><rect x="364" y="227" width="4.5" height="48" rx="2" fill="#D9583E"/>
<text x="378" y="249" font-size="12.5" font-weight="700" fill="#8A2B1A">Opus 4.8</text>
<text x="378" y="266" font-size="10.5" fill="#8A2B1A" opacity="0.8">:max</text>
<rect x="540" y="227" width="168" height="48" rx="8" fill="#E3F4EE"/><rect x="540" y="227" width="4.5" height="48" rx="2" fill="#10A37F"/>
<text x="554" y="249" font-size="12.5" font-weight="700" fill="#0A6B53">GPT-5.5</text>
<text x="554" y="266" font-size="10.5" fill="#0A6B53" opacity="0.8">:xhigh</text>
<rect x="716" y="227" width="168" height="48" rx="8" fill="#E8F0FE"/><rect x="716" y="227" width="4.5" height="48" rx="2" fill="#4285F4"/>
<text x="730" y="249" font-size="11" font-weight="700" fill="#1A56C4">Gemini 3.1 Pro</text>
<text x="730" y="266" font-size="10.5" fill="#1A56C4" opacity="0.8">low:high</text>
<rect x="892" y="227" width="168" height="48" rx="8" fill="#EEF1F5"/><rect x="892" y="227" width="4.5" height="48" rx="2" fill="#475569"/>
<text x="906" y="249" font-size="12.5" font-weight="700" fill="#2D3A4D">Grok 4.3</text>
<text x="906" y="266" font-size="10.5" fill="#2D3A4D" opacity="0.8">:high</text>
<rect x="24" y="288" width="1040" height="58" rx="10" fill="#FFFFFF"/>
<text x="34" y="315" font-size="13.5" font-weight="700" fill="#1A1A28">🏎 coding-sprint</text>
<rect x="188" y="293" width="168" height="48" rx="8" fill="#FBE9E4"/><rect x="188" y="293" width="4.5" height="48" rx="2" fill="#D9583E"/>
<text x="202" y="315" font-size="12.5" font-weight="700" fill="#8A2B1A">Opus 4.8</text>
<text x="202" y="332" font-size="10.5" fill="#8A2B1A" opacity="0.8">:medium</text>
<rect x="364" y="293" width="168" height="48" rx="8" fill="#FBE9E4"/><rect x="364" y="293" width="4.5" height="48" rx="2" fill="#D9583E"/>
<text x="378" y="315" font-size="12.5" font-weight="700" fill="#8A2B1A">Opus 4.8</text>
<text x="378" y="332" font-size="10.5" fill="#8A2B1A" opacity="0.8">:max</text>
<rect x="540" y="293" width="168" height="48" rx="8" fill="#E8F0FE"/><rect x="540" y="293" width="4.5" height="48" rx="2" fill="#4285F4"/>
<text x="554" y="315" font-size="11" font-weight="700" fill="#1A56C4">Gemini 3.1 Pro</text>
<text x="554" y="332" font-size="10.5" fill="#1A56C4" opacity="0.8">low:high</text>
<rect x="716" y="293" width="168" height="48" rx="8" fill="#E8F0FE"/><rect x="716" y="293" width="4.5" height="48" rx="2" fill="#4285F4"/>
<text x="730" y="315" font-size="11" font-weight="700" fill="#1A56C4">Gemini 3.1 Pro</text>
<text x="730" y="332" font-size="10.5" fill="#1A56C4" opacity="0.8">low:high</text>
<rect x="892" y="293" width="168" height="48" rx="8" fill="#E3F4EE"/><rect x="892" y="293" width="4.5" height="48" rx="2" fill="#10A37F"/>
<text x="906" y="315" font-size="12.5" font-weight="700" fill="#0A6B53">GPT-5.4</text>
<text x="906" y="332" font-size="10.5" fill="#0A6B53" opacity="0.8">:high</text>
<rect x="24" y="354" width="1040" height="58" rx="10" fill="#FAFAFC"/>
<text x="34" y="381" font-size="13.5" font-weight="700" fill="#1A1A28">🛡 escalation</text>
<rect x="188" y="359" width="168" height="48" rx="8" fill="#FBE9E4"/><rect x="188" y="359" width="4.5" height="48" rx="2" fill="#D9583E"/>
<text x="202" y="381" font-size="12.5" font-weight="700" fill="#8A2B1A">Opus 4.8</text>
<text x="202" y="398" font-size="10.5" fill="#8A2B1A" opacity="0.8">:high</text>
<rect x="364" y="359" width="168" height="48" rx="8" fill="#FBE9E4"/><rect x="364" y="359" width="4.5" height="48" rx="2" fill="#D9583E"/>
<text x="378" y="381" font-size="12.5" font-weight="700" fill="#8A2B1A">Opus 4.8</text>
<text x="378" y="398" font-size="10.5" fill="#8A2B1A" opacity="0.8">:max</text>
<rect x="540" y="359" width="168" height="48" rx="8" fill="#E3F4EE"/><rect x="540" y="359" width="4.5" height="48" rx="2" fill="#10A37F"/>
<text x="554" y="381" font-size="12.5" font-weight="700" fill="#0A6B53">GPT-5.5</text>
<text x="554" y="398" font-size="10.5" fill="#0A6B53" opacity="0.8">:xhigh</text>
<rect x="716" y="359" width="168" height="48" rx="8" fill="#E8F0FE"/><rect x="716" y="359" width="4.5" height="48" rx="2" fill="#4285F4"/>
<text x="730" y="381" font-size="11" font-weight="700" fill="#1A56C4">Gemini 3.1 Pro</text>
<text x="730" y="398" font-size="10.5" fill="#1A56C4" opacity="0.8">low:high</text>
<rect x="892" y="359" width="168" height="48" rx="8" fill="#EEF1F5"/><rect x="892" y="359" width="4.5" height="48" rx="2" fill="#475569"/>
<text x="906" y="381" font-size="12.5" font-weight="700" fill="#2D3A4D">Grok 4.3</text>
<text x="906" y="398" font-size="10.5" fill="#2D3A4D" opacity="0.8">:xhigh</text>
<rect x="24" y="420" width="1040" height="58" rx="10" fill="#FFFFFF"/>
<text x="34" y="447" font-size="13.5" font-weight="700" fill="#1A1A28">💸 eco</text>
<rect x="188" y="425" width="168" height="48" rx="8" fill="#FBE9E4"/><rect x="188" y="425" width="4.5" height="48" rx="2" fill="#D9583E"/>
<text x="202" y="447" font-size="12.5" font-weight="700" fill="#8A2B1A">Opus 4.8</text>
<text x="202" y="464" font-size="10.5" fill="#8A2B1A" opacity="0.8">:low</text>
<rect x="364" y="425" width="168" height="48" rx="8" fill="#FEF1DD"/><rect x="364" y="425" width="4.5" height="48" rx="2" fill="#E08A1E"/>
<text x="378" y="447" font-size="11" font-weight="700" fill="#8A5412">DeepSeek V4 Flash</text>
<rect x="540" y="425" width="168" height="48" rx="8" fill="#EEF1F5"/><rect x="540" y="425" width="4.5" height="48" rx="2" fill="#475569"/>
<text x="554" y="447" font-size="12.5" font-weight="700" fill="#2D3A4D">Grok 4.1 Fast</text>
<text x="554" y="464" font-size="10.5" fill="#2D3A4D" opacity="0.8">:high</text>
<rect x="716" y="425" width="168" height="48" rx="8" fill="#E8F0FE"/><rect x="716" y="425" width="4.5" height="48" rx="2" fill="#4285F4"/>
<text x="730" y="447" font-size="11" font-weight="700" fill="#1A56C4">Gemini 3.1 Pro</text>
<text x="730" y="464" font-size="10.5" fill="#1A56C4" opacity="0.8">:low</text>
<rect x="892" y="425" width="168" height="48" rx="8" fill="#E8F0FE"/><rect x="892" y="425" width="4.5" height="48" rx="2" fill="#4285F4"/>
<text x="906" y="447" font-size="11" font-weight="700" fill="#1A56C4">Gemini 3.5 Flash</text>
<rect x="24" y="486" width="1040" height="58" rx="10" fill="#FAFAFC"/>
<text x="34" y="513" font-size="13.5" font-weight="700" fill="#1A1A28">🗺 monorepo</text>
<rect x="188" y="491" width="168" height="48" rx="8" fill="#FBE9E4"/><rect x="188" y="491" width="4.5" height="48" rx="2" fill="#D9583E"/>
<text x="202" y="513" font-size="12.5" font-weight="700" fill="#8A2B1A">Opus 4.8</text>
<text x="202" y="530" font-size="10.5" fill="#8A2B1A" opacity="0.8">:medium</text>
<rect x="364" y="491" width="168" height="48" rx="8" fill="#FBE9E4"/><rect x="364" y="491" width="4.5" height="48" rx="2" fill="#D9583E"/>
<text x="378" y="513" font-size="12.5" font-weight="700" fill="#8A2B1A">Opus 4.8</text>
<text x="378" y="530" font-size="10.5" fill="#8A2B1A" opacity="0.8">:high</text>
<rect x="540" y="491" width="168" height="48" rx="8" fill="#E8F0FE"/><rect x="540" y="491" width="4.5" height="48" rx="2" fill="#4285F4"/>
<text x="554" y="513" font-size="11" font-weight="700" fill="#1A56C4">Gemini 3.1 Pro</text>
<text x="554" y="530" font-size="10.5" fill="#1A56C4" opacity="0.8">low:high</text>
<rect x="716" y="491" width="168" height="48" rx="8" fill="#FBE9E4"/><rect x="716" y="491" width="4.5" height="48" rx="2" fill="#D9583E"/>
<text x="730" y="513" font-size="12.5" font-weight="700" fill="#8A2B1A">Opus 4.8</text>
<text x="730" y="530" font-size="10.5" fill="#8A2B1A" opacity="0.8">:high</text>
<rect x="892" y="491" width="168" height="48" rx="8" fill="#FEF1DD"/><rect x="892" y="491" width="4.5" height="48" rx="2" fill="#E08A1E"/>
<text x="906" y="513" font-size="12.5" font-weight="700" fill="#8A5412">GLM-5.2</text>
<rect x="24" y="552" width="1040" height="58" rx="10" fill="#FFFFFF"/>
<text x="34" y="579" font-size="13.5" font-weight="700" fill="#1A1A28">🧱 solo-anthropic</text>
<rect x="188" y="557" width="168" height="48" rx="8" fill="#FBE9E4"/><rect x="188" y="557" width="4.5" height="48" rx="2" fill="#D9583E"/>
<text x="202" y="579" font-size="12.5" font-weight="700" fill="#8A2B1A">Opus 4.8</text>
<text x="202" y="596" font-size="10.5" fill="#8A2B1A" opacity="0.8">:high</text>
<rect x="364" y="557" width="168" height="48" rx="8" fill="#FBE9E4"/><rect x="364" y="557" width="4.5" height="48" rx="2" fill="#D9583E"/>
<text x="378" y="579" font-size="12.5" font-weight="700" fill="#8A2B1A">Opus 4.8</text>
<text x="378" y="596" font-size="10.5" fill="#8A2B1A" opacity="0.8">:max</text>
<rect x="540" y="557" width="168" height="48" rx="8" fill="#FBE9E4"/><rect x="540" y="557" width="4.5" height="48" rx="2" fill="#D9583E"/>
<text x="554" y="579" font-size="12.5" font-weight="700" fill="#8A2B1A">Opus 4.8</text>
<text x="554" y="596" font-size="10.5" fill="#8A2B1A" opacity="0.8">:max</text>
<rect x="716" y="557" width="168" height="48" rx="8" fill="#FBE9E4"/><rect x="716" y="557" width="4.5" height="48" rx="2" fill="#D9583E"/>
<text x="730" y="579" font-size="12.5" font-weight="700" fill="#8A2B1A">Opus 4.8</text>
<text x="730" y="596" font-size="10.5" fill="#8A2B1A" opacity="0.8">:high</text>
<rect x="892" y="557" width="168" height="48" rx="8" fill="#FBE9E4"/><rect x="892" y="557" width="4.5" height="48" rx="2" fill="#D9583E"/>
<text x="906" y="579" font-size="12.5" font-weight="700" fill="#8A2B1A">Sonnet 4.6</text>
<text x="906" y="596" font-size="10.5" fill="#8A2B1A" opacity="0.8">:high</text>
<rect x="24" y="618" width="1040" height="58" rx="10" fill="#FAFAFC"/>
<text x="34" y="645" font-size="13.5" font-weight="700" fill="#1A1A28">🤖 solo-openai</text>
<rect x="188" y="623" width="168" height="48" rx="8" fill="#E3F4EE"/><rect x="188" y="623" width="4.5" height="48" rx="2" fill="#10A37F"/>
<text x="202" y="645" font-size="12.5" font-weight="700" fill="#0A6B53">GPT-5.5</text>
<text x="202" y="662" font-size="10.5" fill="#0A6B53" opacity="0.8">:high</text>
<rect x="364" y="623" width="168" height="48" rx="8" fill="#E3F4EE"/><rect x="364" y="623" width="4.5" height="48" rx="2" fill="#10A37F"/>
<text x="378" y="645" font-size="12.5" font-weight="700" fill="#0A6B53">GPT-5.5</text>
<text x="378" y="662" font-size="10.5" fill="#0A6B53" opacity="0.8">:xhigh</text>
<rect x="540" y="623" width="168" height="48" rx="8" fill="#E3F4EE"/><rect x="540" y="623" width="4.5" height="48" rx="2" fill="#10A37F"/>
<text x="554" y="645" font-size="12.5" font-weight="700" fill="#0A6B53">GPT-5.5</text>
<text x="554" y="662" font-size="10.5" fill="#0A6B53" opacity="0.8">:xhigh</text>
<rect x="716" y="623" width="168" height="48" rx="8" fill="#E3F4EE"/><rect x="716" y="623" width="4.5" height="48" rx="2" fill="#10A37F"/>
<text x="730" y="645" font-size="12.5" font-weight="700" fill="#0A6B53">GPT-5.4</text>
<text x="730" y="662" font-size="10.5" fill="#0A6B53" opacity="0.8">:high</text>
<rect x="892" y="623" width="168" height="48" rx="8" fill="#E3F4EE"/><rect x="892" y="623" width="4.5" height="48" rx="2" fill="#10A37F"/>
<text x="906" y="645" font-size="12.5" font-weight="700" fill="#0A6B53">GPT-5.4</text>
<text x="906" y="662" font-size="10.5" fill="#0A6B53" opacity="0.8">:high</text>
<rect x="24" y="684" width="1040" height="58" rx="10" fill="#FFFFFF"/>
<text x="34" y="711" font-size="13.5" font-weight="700" fill="#1A1A28">🤝 claude-codex</text>
<rect x="188" y="689" width="168" height="48" rx="8" fill="#FBE9E4"/><rect x="188" y="689" width="4.5" height="48" rx="2" fill="#D9583E"/>
<text x="202" y="711" font-size="12.5" font-weight="700" fill="#8A2B1A">Opus 4.8</text>
<text x="202" y="728" font-size="10.5" fill="#8A2B1A" opacity="0.8">:medium</text>
<rect x="364" y="689" width="168" height="48" rx="8" fill="#FBE9E4"/><rect x="364" y="689" width="4.5" height="48" rx="2" fill="#D9583E"/>
<text x="378" y="711" font-size="12.5" font-weight="700" fill="#8A2B1A">Opus 4.8</text>
<text x="378" y="728" font-size="10.5" fill="#8A2B1A" opacity="0.8">:high</text>
<rect x="540" y="689" width="168" height="48" rx="8" fill="#E3F4EE"/><rect x="540" y="689" width="4.5" height="48" rx="2" fill="#10A37F"/>
<text x="554" y="711" font-size="12.5" font-weight="700" fill="#0A6B53">GPT-5.5</text>
<text x="554" y="728" font-size="10.5" fill="#0A6B53" opacity="0.8">:high</text>
<rect x="716" y="689" width="168" height="48" rx="8" fill="#FBE9E4"/><rect x="716" y="689" width="4.5" height="48" rx="2" fill="#D9583E"/>
<text x="730" y="711" font-size="12.5" font-weight="700" fill="#8A2B1A">Opus 4.8</text>
<text x="730" y="728" font-size="10.5" fill="#8A2B1A" opacity="0.8">:high</text>
<rect x="892" y="689" width="168" height="48" rx="8" fill="#E3F4EE"/><rect x="892" y="689" width="4.5" height="48" rx="2" fill="#10A37F"/>
<text x="906" y="711" font-size="12.5" font-weight="700" fill="#0A6B53">GPT-5.4</text>
<text x="906" y="728" font-size="10.5" fill="#0A6B53" opacity="0.8">:high</text>
<rect x="24" y="750" width="1040" height="58" rx="10" fill="#FAFAFC"/>
<text x="34" y="777" font-size="13.5" font-weight="700" fill="#1A1A28">🥇 claude-codex-max</text>
<rect x="188" y="755" width="168" height="48" rx="8" fill="#FBE9E4"/><rect x="188" y="755" width="4.5" height="48" rx="2" fill="#D9583E"/>
<text x="202" y="777" font-size="12.5" font-weight="700" fill="#8A2B1A">Opus 4.8</text>
<text x="202" y="794" font-size="10.5" fill="#8A2B1A" opacity="0.8">:high</text>
<rect x="364" y="755" width="168" height="48" rx="8" fill="#FBE9E4"/><rect x="364" y="755" width="4.5" height="48" rx="2" fill="#D9583E"/>
<text x="378" y="777" font-size="12.5" font-weight="700" fill="#8A2B1A">Opus 4.8</text>
<text x="378" y="794" font-size="10.5" fill="#8A2B1A" opacity="0.8">:max</text>
<rect x="540" y="755" width="168" height="48" rx="8" fill="#E3F4EE"/><rect x="540" y="755" width="4.5" height="48" rx="2" fill="#10A37F"/>
<text x="554" y="777" font-size="12.5" font-weight="700" fill="#0A6B53">GPT-5.5</text>
<text x="554" y="794" font-size="10.5" fill="#0A6B53" opacity="0.8">:xhigh</text>
<rect x="716" y="755" width="168" height="48" rx="8" fill="#FBE9E4"/><rect x="716" y="755" width="4.5" height="48" rx="2" fill="#D9583E"/>
<text x="730" y="777" font-size="12.5" font-weight="700" fill="#8A2B1A">Opus 4.8</text>
<text x="730" y="794" font-size="10.5" fill="#8A2B1A" opacity="0.8">:high</text>
<rect x="892" y="755" width="168" height="48" rx="8" fill="#E3F4EE"/><rect x="892" y="755" width="4.5" height="48" rx="2" fill="#10A37F"/>
<text x="906" y="777" font-size="12.5" font-weight="700" fill="#0A6B53">GPT-5.5</text>
<text x="906" y="794" font-size="10.5" fill="#0A6B53" opacity="0.8">:high</text>
<text x="24" y="838" font-size="11.5" fill="#6B6B7B">불변식: 멀티벤더 프로필 default = Opus 고정 · critic = 본체와 다른 벤더 · solo-* 는 단일 벤더 최강(독립성 트레이드오프) · 엔진 effort 하드룰 합법</text>
</svg>