<svg xmlns="http://www.w3.org/2000/svg" width="1088" height="902" viewBox="0 0 1088 902" font-family="-apple-system,Segoe UI,Roboto,Helvetica,Arial,sans-serif" role="img">
<title>GJC 멀티벤더 — 10 번들 × 5 역할 매트릭스 (4계층)</title>
<rect width="1088" height="902" rx="18" fill="#ffffff"/><rect width="1088" height="902" rx="18" fill="none" stroke="#ECECF1"/>
<text x="24" y="46" font-size="22" font-weight="700" fill="#1A1A28">GJC 멀티벤더 — 10 번들 × 5 역할 (4계층)</text>
<text x="24" y="72" font-size="13" fill="#6B6B7B">행=번들 · 열=역할 · 색=벤더 · 07-10 rerun-3(gjc 0.9.6): v2 출하 셀렉터 전 좌석 그린</text>
<rect x="24" y="90" width="14" height="14" rx="3" fill="#FBE9E4" stroke="#D9583E"/>
<text x="44" y="102" font-size="12" fill="#444">Anthropic</text>
<rect x="133" y="90" width="14" height="14" rx="3" fill="#E3F4EE" stroke="#10A37F"/>
<text x="153" y="102" font-size="12" fill="#444">OpenAI</text>
<rect x="221" y="90" width="14" height="14" rx="3" fill="#E8F0FE" stroke="#4285F4"/>
<text x="241" y="102" font-size="12" fill="#444">Google</text>
<rect x="309" y="90" width="14" height="14" rx="3" fill="#EEF1F5" stroke="#475569"/>
<text x="329" y="102" font-size="12" fill="#444">xAI</text>
<rect x="376" y="90" width="14" height="14" rx="3" fill="#DFF3F4" stroke="#0E7490"/>
<text x="396" y="102" font-size="12" fill="#444">opencode-go</text>
<line x1="24" y1="118" x2="1064" y2="118" stroke="#F0F0F4"/>
<text x="272" y="148" font-size="13" font-weight="600" fill="#33334a" text-anchor="middle">🎛 default</text>
<text x="448" y="148" font-size="13" font-weight="600" fill="#33334a" text-anchor="middle">🔨 executor</text>
<text x="624" y="148" font-size="13" font-weight="600" fill="#33334a" text-anchor="middle">🧠 planner</text>
<text x="800" y="148" font-size="13" font-weight="600" fill="#33334a" text-anchor="middle">🔭 architect</text>
<text x="976" y="148" font-size="13" font-weight="600" fill="#33334a" text-anchor="middle">⚖ critic</text>
<rect x="24" y="172" width="1040" height="58" rx="10" fill="#FFFFFF"/>
<text x="34" y="199" font-size="13.5" font-weight="700" fill="#1A1A28">⭐ daily</text>
<text x="34" y="217" font-size="10.5" fill="#D9583E" font-weight="600">Core · 구독 3벤더</text>
<rect x="188" y="177" width="168" height="48" rx="8" fill="#FBE9E4"/><rect x="188" y="177" width="4.5" height="48" rx="2" fill="#D9583E"/>
<text x="202" y="199" font-size="12.5" font-weight="700" fill="#8A2B1A">Opus 4.8</text>
<text x="202" y="216" font-size="10.5" fill="#8A2B1A" opacity="0.8">:medium</text>
<rect x="364" y="177" width="168" height="48" rx="8" fill="#E3F4EE"/><rect x="364" y="177" width="4.5" height="48" rx="2" fill="#10A37F"/>
<text x="378" y="199" font-size="11" font-weight="700" fill="#0A6B53">GPT-5.6 Terra</text>
<text x="378" y="216" font-size="10.5" fill="#0A6B53" opacity="0.8">:high</text>
<rect x="540" y="177" width="168" height="48" rx="8" fill="#E3F4EE"/><rect x="540" y="177" width="4.5" height="48" rx="2" fill="#10A37F"/>
<text x="554" y="199" font-size="12.5" font-weight="700" fill="#0A6B53">GPT-5.6 Sol</text>
<text x="554" y="216" font-size="10.5" fill="#0A6B53" opacity="0.8">:high</text>
<rect x="716" y="177" width="168" height="48" rx="8" fill="#E8F0FE"/><rect x="716" y="177" width="4.5" height="48" rx="2" fill="#4285F4"/>
<text x="730" y="199" font-size="10.2" font-weight="700" fill="#1A56C4">Gemini 3.1 Pro-low</text>
<text x="730" y="216" font-size="10.5" fill="#1A56C4" opacity="0.8">:high</text>
<rect x="892" y="177" width="168" height="48" rx="8" fill="#E8F0FE"/><rect x="892" y="177" width="4.5" height="48" rx="2" fill="#4285F4"/>
<text x="906" y="199" font-size="10.2" font-weight="700" fill="#1A56C4">Gemini 3.1 Pro-low</text>
<text x="906" y="216" font-size="10.5" fill="#1A56C4" opacity="0.8">:high</text>
<rect x="24" y="238" width="1040" height="58" rx="10" fill="#FAFAFC"/>
<text x="34" y="265" font-size="13.5" font-weight="700" fill="#1A1A28">🏎 coding-sprint</text>
<text x="34" y="283" font-size="10.5" fill="#D9583E" font-weight="600">Core</text>
<rect x="188" y="243" width="168" height="48" rx="8" fill="#FBE9E4"/><rect x="188" y="243" width="4.5" height="48" rx="2" fill="#D9583E"/>
<text x="202" y="265" font-size="12.5" font-weight="700" fill="#8A2B1A">Opus 4.8</text>
<text x="202" y="282" font-size="10.5" fill="#8A2B1A" opacity="0.8">:medium</text>
<rect x="364" y="243" width="168" height="48" rx="8" fill="#FBE9E4"/><rect x="364" y="243" width="4.5" height="48" rx="2" fill="#D9583E"/>
<text x="378" y="265" font-size="12.5" font-weight="700" fill="#8A2B1A">Opus 4.8</text>
<text x="378" y="282" font-size="10.5" fill="#8A2B1A" opacity="0.8">:high</text>
<rect x="540" y="243" width="168" height="48" rx="8" fill="#E3F4EE"/><rect x="540" y="243" width="4.5" height="48" rx="2" fill="#10A37F"/>
<text x="554" y="265" font-size="12.5" font-weight="700" fill="#0A6B53">GPT-5.6 Sol</text>
<text x="554" y="282" font-size="10.5" fill="#0A6B53" opacity="0.8">:high</text>
<rect x="716" y="243" width="168" height="48" rx="8" fill="#E8F0FE"/><rect x="716" y="243" width="4.5" height="48" rx="2" fill="#4285F4"/>
<text x="730" y="265" font-size="10.2" font-weight="700" fill="#1A56C4">Gemini 3.1 Pro-low</text>
<text x="730" y="282" font-size="10.5" fill="#1A56C4" opacity="0.8">:high</text>
<rect x="892" y="243" width="168" height="48" rx="8" fill="#E3F4EE"/><rect x="892" y="243" width="4.5" height="48" rx="2" fill="#10A37F"/>
<text x="906" y="265" font-size="11" font-weight="700" fill="#0A6B53">GPT-5.6 Terra</text>
<text x="906" y="282" font-size="10.5" fill="#0A6B53" opacity="0.8">:high</text>
<rect x="24" y="304" width="1040" height="58" rx="10" fill="#FFFFFF"/>
<text x="34" y="331" font-size="13.5" font-weight="700" fill="#1A1A28">🚨 cyber-cop</text>
<text x="34" y="349" font-size="10.5" fill="#D9583E" font-weight="600">Core · reviewer 모드</text>
<rect x="188" y="309" width="168" height="48" rx="8" fill="#FBE9E4"/><rect x="188" y="309" width="4.5" height="48" rx="2" fill="#D9583E"/>
<text x="202" y="331" font-size="12.5" font-weight="700" fill="#8A2B1A">Opus 4.8</text>
<text x="202" y="348" font-size="10.5" fill="#8A2B1A" opacity="0.8">:high</text>
<rect x="364" y="309" width="168" height="48" rx="8" fill="#E3F4EE"/><rect x="364" y="309" width="4.5" height="48" rx="2" fill="#10A37F"/>
<text x="378" y="331" font-size="12.5" font-weight="700" fill="#0A6B53">GPT-5.6 Sol</text>
<text x="378" y="348" font-size="10.5" fill="#0A6B53" opacity="0.8">:high</text>
<rect x="540" y="309" width="168" height="48" rx="8" fill="#E8F0FE"/><rect x="540" y="309" width="4.5" height="48" rx="2" fill="#4285F4"/>
<text x="554" y="331" font-size="10.2" font-weight="700" fill="#1A56C4">Gemini 3.1 Pro-low</text>
<text x="554" y="348" font-size="10.5" fill="#1A56C4" opacity="0.8">:high</text>
<rect x="716" y="309" width="168" height="48" rx="8" fill="#FBE9E4"/><rect x="716" y="309" width="4.5" height="48" rx="2" fill="#D9583E"/>
<text x="730" y="331" font-size="12.5" font-weight="700" fill="#8A2B1A">Opus 4.8</text>
<text x="730" y="348" font-size="10.5" fill="#8A2B1A" opacity="0.8">:high</text>
<rect x="892" y="309" width="168" height="48" rx="8" fill="#E3F4EE"/><rect x="892" y="309" width="4.5" height="48" rx="2" fill="#10A37F"/>
<text x="906" y="331" font-size="12.5" font-weight="700" fill="#0A6B53">GPT-5.6 Sol</text>
<text x="906" y="348" font-size="10.5" fill="#0A6B53" opacity="0.8">:high</text>
<rect x="24" y="370" width="1040" height="58" rx="10" fill="#FAFAFC"/>
<text x="34" y="397" font-size="13.5" font-weight="700" fill="#1A1A28">🏆 ultimate-opus</text>
<text x="34" y="415" font-size="10.5" fill="#D9583E" font-weight="600">Premium (exp)</text>
<rect x="188" y="375" width="168" height="48" rx="8" fill="#FBE9E4"/><rect x="188" y="375" width="4.5" height="48" rx="2" fill="#D9583E"/>
<text x="202" y="397" font-size="12.5" font-weight="700" fill="#8A2B1A">Opus 4.8</text>
<text x="202" y="414" font-size="10.5" fill="#8A2B1A" opacity="0.8">:high</text>
<rect x="364" y="375" width="168" height="48" rx="8" fill="#FBE9E4"/><rect x="364" y="375" width="4.5" height="48" rx="2" fill="#D9583E"/>
<text x="378" y="397" font-size="12.5" font-weight="700" fill="#8A2B1A">Opus 4.8</text>
<text x="378" y="414" font-size="10.5" fill="#8A2B1A" opacity="0.8">:high</text>
<rect x="540" y="375" width="168" height="48" rx="8" fill="#E3F4EE"/><rect x="540" y="375" width="4.5" height="48" rx="2" fill="#10A37F"/>
<text x="554" y="397" font-size="12.5" font-weight="700" fill="#0A6B53">GPT-5.6 Sol</text>
<text x="554" y="414" font-size="10.5" fill="#0A6B53" opacity="0.8">:xhigh</text>
<rect x="716" y="375" width="168" height="48" rx="8" fill="#FBE9E4"/><rect x="716" y="375" width="4.5" height="48" rx="2" fill="#D9583E"/>
<text x="730" y="397" font-size="12.5" font-weight="700" fill="#8A2B1A">Opus 4.8</text>
<text x="730" y="414" font-size="10.5" fill="#8A2B1A" opacity="0.8">:high</text>
<rect x="892" y="375" width="168" height="48" rx="8" fill="#EEF1F5"/><rect x="892" y="375" width="4.5" height="48" rx="2" fill="#475569"/>
<text x="906" y="397" font-size="12.5" font-weight="700" fill="#2D3A4D">Grok 4.5</text>
<text x="906" y="414" font-size="10.5" fill="#2D3A4D" opacity="0.8">:high</text>
<rect x="24" y="436" width="1040" height="58" rx="10" fill="#FFFFFF"/>
<text x="34" y="463" font-size="13.5" font-weight="700" fill="#1A1A28">🧪 ultimate-sol</text>
<text x="34" y="481" font-size="10.5" fill="#D9583E" font-weight="600">Premium (exp) · Sol 라우터</text>
<rect x="188" y="441" width="168" height="48" rx="8" fill="#E3F4EE"/><rect x="188" y="441" width="4.5" height="48" rx="2" fill="#10A37F"/>
<text x="202" y="463" font-size="12.5" font-weight="700" fill="#0A6B53">GPT-5.6 Sol</text>
<text x="202" y="480" font-size="10.5" fill="#0A6B53" opacity="0.8">:high</text>
<rect x="364" y="441" width="168" height="48" rx="8" fill="#E3F4EE"/><rect x="364" y="441" width="4.5" height="48" rx="2" fill="#10A37F"/>
<text x="378" y="463" font-size="12.5" font-weight="700" fill="#0A6B53">GPT-5.6 Sol</text>
<text x="378" y="480" font-size="10.5" fill="#0A6B53" opacity="0.8">:xhigh</text>
<rect x="540" y="441" width="168" height="48" rx="8" fill="#E3F4EE"/><rect x="540" y="441" width="4.5" height="48" rx="2" fill="#10A37F"/>
<text x="554" y="463" font-size="12.5" font-weight="700" fill="#0A6B53">GPT-5.6 Sol</text>
<text x="554" y="480" font-size="10.5" fill="#0A6B53" opacity="0.8">:xhigh</text>
<rect x="716" y="441" width="168" height="48" rx="8" fill="#FBE9E4"/><rect x="716" y="441" width="4.5" height="48" rx="2" fill="#D9583E"/>
<text x="730" y="463" font-size="12.5" font-weight="700" fill="#8A2B1A">Opus 4.8</text>
<text x="730" y="480" font-size="10.5" fill="#8A2B1A" opacity="0.8">:high</text>
<rect x="892" y="441" width="168" height="48" rx="8" fill="#EEF1F5"/><rect x="892" y="441" width="4.5" height="48" rx="2" fill="#475569"/>
<text x="906" y="463" font-size="12.5" font-weight="700" fill="#2D3A4D">Grok 4.5</text>
<text x="906" y="480" font-size="10.5" fill="#2D3A4D" opacity="0.8">:high</text>
<rect x="24" y="502" width="1040" height="58" rx="10" fill="#FAFAFC"/>
<text x="34" y="529" font-size="13.5" font-weight="700" fill="#1A1A28">🔥 dream-team</text>
<text x="34" y="547" font-size="10.5" fill="#D9583E" font-weight="600">Premium (exp) · Fable 중심</text>
<rect x="188" y="507" width="168" height="48" rx="8" fill="#FBE9E4"/><rect x="188" y="507" width="4.5" height="48" rx="2" fill="#D9583E"/>
<text x="202" y="529" font-size="12.5" font-weight="700" fill="#8A2B1A">Fable 5</text>
<text x="202" y="546" font-size="10.5" fill="#8A2B1A" opacity="0.8">:high</text>
<rect x="364" y="507" width="168" height="48" rx="8" fill="#FBE9E4"/><rect x="364" y="507" width="4.5" height="48" rx="2" fill="#D9583E"/>
<text x="378" y="529" font-size="12.5" font-weight="700" fill="#8A2B1A">Fable 5</text>
<text x="378" y="546" font-size="10.5" fill="#8A2B1A" opacity="0.8">:xhigh</text>
<rect x="540" y="507" width="168" height="48" rx="8" fill="#E3F4EE"/><rect x="540" y="507" width="4.5" height="48" rx="2" fill="#10A37F"/>
<text x="554" y="529" font-size="12.5" font-weight="700" fill="#0A6B53">GPT-5.6 Sol</text>
<text x="554" y="546" font-size="10.5" fill="#0A6B53" opacity="0.8">:xhigh</text>
<rect x="716" y="507" width="168" height="48" rx="8" fill="#FBE9E4"/><rect x="716" y="507" width="4.5" height="48" rx="2" fill="#D9583E"/>
<text x="730" y="529" font-size="12.5" font-weight="700" fill="#8A2B1A">Opus 4.8</text>
<text x="730" y="546" font-size="10.5" fill="#8A2B1A" opacity="0.8">:high</text>
<rect x="892" y="507" width="168" height="48" rx="8" fill="#EEF1F5"/><rect x="892" y="507" width="4.5" height="48" rx="2" fill="#475569"/>
<text x="906" y="529" font-size="12.5" font-weight="700" fill="#2D3A4D">Grok 4.5</text>
<text x="906" y="546" font-size="10.5" fill="#2D3A4D" opacity="0.8">:high</text>
<rect x="24" y="568" width="1040" height="58" rx="10" fill="#FFFFFF"/>
<text x="34" y="595" font-size="13.5" font-weight="700" fill="#1A1A28">🏛 llm-council</text>
<text x="34" y="613" font-size="10.5" fill="#D9583E" font-weight="600">Workflow · 좌석표+계약</text>
<rect x="188" y="573" width="168" height="48" rx="8" fill="#FBE9E4"/><rect x="188" y="573" width="4.5" height="48" rx="2" fill="#D9583E"/>
<text x="202" y="595" font-size="12.5" font-weight="700" fill="#8A2B1A">Opus 4.8</text>
<text x="202" y="612" font-size="10.5" fill="#8A2B1A" opacity="0.8">:high</text>
<rect x="364" y="573" width="168" height="48" rx="8" fill="#E3F4EE"/><rect x="364" y="573" width="4.5" height="48" rx="2" fill="#10A37F"/>
<text x="378" y="595" font-size="11" font-weight="700" fill="#0A6B53">GPT-5.6 Terra</text>
<text x="378" y="612" font-size="10.5" fill="#0A6B53" opacity="0.8">:high</text>
<rect x="540" y="573" width="168" height="48" rx="8" fill="#E3F4EE"/><rect x="540" y="573" width="4.5" height="48" rx="2" fill="#10A37F"/>
<text x="554" y="595" font-size="12.5" font-weight="700" fill="#0A6B53">GPT-5.6 Sol</text>
<text x="554" y="612" font-size="10.5" fill="#0A6B53" opacity="0.8">:xhigh</text>
<rect x="716" y="573" width="168" height="48" rx="8" fill="#E8F0FE"/><rect x="716" y="573" width="4.5" height="48" rx="2" fill="#4285F4"/>
<text x="730" y="595" font-size="10.2" font-weight="700" fill="#1A56C4">Gemini 3.1 Pro-low</text>
<text x="730" y="612" font-size="10.5" fill="#1A56C4" opacity="0.8">:high</text>
<rect x="892" y="573" width="168" height="48" rx="8" fill="#EEF1F5"/><rect x="892" y="573" width="4.5" height="48" rx="2" fill="#475569"/>
<text x="906" y="595" font-size="12.5" font-weight="700" fill="#2D3A4D">Grok 4.5</text>
<text x="906" y="612" font-size="10.5" fill="#2D3A4D" opacity="0.8">:high</text>
<rect x="24" y="634" width="1040" height="58" rx="10" fill="#FAFAFC"/>
<text x="34" y="661" font-size="13.5" font-weight="700" fill="#1A1A28">🛡 escalation</text>
<text x="34" y="679" font-size="10.5" fill="#D9583E" font-weight="600">Workflow · 구원투수=Fable</text>
<rect x="188" y="639" width="168" height="48" rx="8" fill="#FBE9E4"/><rect x="188" y="639" width="4.5" height="48" rx="2" fill="#D9583E"/>
<text x="202" y="661" font-size="12.5" font-weight="700" fill="#8A2B1A">Opus 4.8</text>
<text x="202" y="678" font-size="10.5" fill="#8A2B1A" opacity="0.8">:high</text>
<rect x="364" y="639" width="168" height="48" rx="8" fill="#FBE9E4"/><rect x="364" y="639" width="4.5" height="48" rx="2" fill="#D9583E"/>
<text x="378" y="661" font-size="12.5" font-weight="700" fill="#8A2B1A">Fable 5</text>
<text x="378" y="678" font-size="10.5" fill="#8A2B1A" opacity="0.8">:xhigh</text>
<rect x="540" y="639" width="168" height="48" rx="8" fill="#E3F4EE"/><rect x="540" y="639" width="4.5" height="48" rx="2" fill="#10A37F"/>
<text x="554" y="661" font-size="12.5" font-weight="700" fill="#0A6B53">GPT-5.6 Sol</text>
<text x="554" y="678" font-size="10.5" fill="#0A6B53" opacity="0.8">:xhigh</text>
<rect x="716" y="639" width="168" height="48" rx="8" fill="#E8F0FE"/><rect x="716" y="639" width="4.5" height="48" rx="2" fill="#4285F4"/>
<text x="730" y="661" font-size="10.2" font-weight="700" fill="#1A56C4">Gemini 3.1 Pro-low</text>
<text x="730" y="678" font-size="10.5" fill="#1A56C4" opacity="0.8">:high</text>
<rect x="892" y="639" width="168" height="48" rx="8" fill="#EEF1F5"/><rect x="892" y="639" width="4.5" height="48" rx="2" fill="#475569"/>
<text x="906" y="661" font-size="12.5" font-weight="700" fill="#2D3A4D">Grok 4.5</text>
<text x="906" y="678" font-size="10.5" fill="#2D3A4D" opacity="0.8">:high</text>
<rect x="24" y="700" width="1040" height="58" rx="10" fill="#FFFFFF"/>
<text x="34" y="727" font-size="13.5" font-weight="700" fill="#1A1A28">💸 eco</text>
<text x="34" y="745" font-size="10.5" fill="#D9583E" font-weight="600">Specialized (exp)</text>
<rect x="188" y="705" width="168" height="48" rx="8" fill="#E3F4EE"/><rect x="188" y="705" width="4.5" height="48" rx="2" fill="#10A37F"/>
<text x="202" y="727" font-size="11" font-weight="700" fill="#0A6B53">GPT-5.6 Terra</text>
<text x="202" y="744" font-size="10.5" fill="#0A6B53" opacity="0.8">:medium</text>
<rect x="364" y="705" width="168" height="48" rx="8" fill="#DFF3F4"/><rect x="364" y="705" width="4.5" height="48" rx="2" fill="#0E7490"/>
<text x="378" y="734" font-size="11" font-weight="700" fill="#155E63">DeepSeek V4 Flash</text>
<rect x="540" y="705" width="168" height="48" rx="8" fill="#E3F4EE"/><rect x="540" y="705" width="4.5" height="48" rx="2" fill="#10A37F"/>
<text x="554" y="727" font-size="12.5" font-weight="700" fill="#0A6B53">GPT-5.6 Luna</text>
<text x="554" y="744" font-size="10.5" fill="#0A6B53" opacity="0.8">:medium</text>
<rect x="716" y="705" width="168" height="48" rx="8" fill="#E8F0FE"/><rect x="716" y="705" width="4.5" height="48" rx="2" fill="#4285F4"/>
<text x="730" y="727" font-size="10.2" font-weight="700" fill="#1A56C4">Gemini 3.1 Pro-low</text>
<text x="730" y="744" font-size="10.5" fill="#1A56C4" opacity="0.8">:high</text>
<rect x="892" y="705" width="168" height="48" rx="8" fill="#E8F0FE"/><rect x="892" y="705" width="4.5" height="48" rx="2" fill="#4285F4"/>
<text x="906" y="727" font-size="11" font-weight="700" fill="#1A56C4">Gemini 3-flash</text>
<text x="906" y="744" font-size="10.5" fill="#1A56C4" opacity="0.8">:low</text>
<rect x="24" y="766" width="1040" height="58" rx="10" fill="#FAFAFC"/>
<text x="34" y="793" font-size="13.5" font-weight="700" fill="#1A1A28">🗺 monorepo</text>
<text x="34" y="811" font-size="10.5" fill="#D9583E" font-weight="600">Specialized (exp)</text>
<rect x="188" y="771" width="168" height="48" rx="8" fill="#FBE9E4"/><rect x="188" y="771" width="4.5" height="48" rx="2" fill="#D9583E"/>
<text x="202" y="793" font-size="12.5" font-weight="700" fill="#8A2B1A">Opus 4.8</text>
<text x="202" y="810" font-size="10.5" fill="#8A2B1A" opacity="0.8">:medium</text>
<rect x="364" y="771" width="168" height="48" rx="8" fill="#FBE9E4"/><rect x="364" y="771" width="4.5" height="48" rx="2" fill="#D9583E"/>
<text x="378" y="793" font-size="12.5" font-weight="700" fill="#8A2B1A">Opus 4.8</text>
<text x="378" y="810" font-size="10.5" fill="#8A2B1A" opacity="0.8">:high</text>
<rect x="540" y="771" width="168" height="48" rx="8" fill="#E8F0FE"/><rect x="540" y="771" width="4.5" height="48" rx="2" fill="#4285F4"/>
<text x="554" y="793" font-size="10.2" font-weight="700" fill="#1A56C4">Gemini 3.1 Pro-low</text>
<text x="554" y="810" font-size="10.5" fill="#1A56C4" opacity="0.8">:high</text>
<rect x="716" y="771" width="168" height="48" rx="8" fill="#FBE9E4"/><rect x="716" y="771" width="4.5" height="48" rx="2" fill="#D9583E"/>
<text x="730" y="793" font-size="12.5" font-weight="700" fill="#8A2B1A">Opus 4.8</text>
<text x="730" y="810" font-size="10.5" fill="#8A2B1A" opacity="0.8">:high</text>
<rect x="892" y="771" width="168" height="48" rx="8" fill="#DFF3F4"/><rect x="892" y="771" width="4.5" height="48" rx="2" fill="#0E7490"/>
<text x="906" y="800" font-size="12.5" font-weight="700" fill="#155E63">GLM-5.2</text>
<text x="24" y="860" font-size="11.5" fill="#6B6B7B">불변식: 전 번들 멀티벤더(providers ≥2) · default = Anthropic 플래그십(예외 ultimate-sol, WARN 표면화) · critic = cross-family 기본(예외는 SAME_FAMILY_OK + WARN)</text>
<text x="24" y="880" font-size="11.5" fill="#6B6B7B">엔진 effort 하드룰 합법 · 🔥 dream-team = Fable 5 구독 포함 이벤트(~7/12 23:59 PT, 이후 usage credits $10/$50) · llm-council/escalation 은 좌석표+워크플로 계약 · gjc 0.9.6</text>
</svg>
